<svg xmlns="http://www.w3.org/2000/svg" width="108" height="83" fill="none" viewBox="0 0 108 83"><path fill="#1BC88C" d="M74.5321 45.944C92.9846 45.944 108 61.3878 108 80.375L107.988 80.6789C107.865 81.9814 106.778 83 105.455 83C104.049 83 102.909 81.8501 102.909 80.4315L102.904 79.8141C102.613 63.9582 90.0235 51.194 74.5321 51.194C58.8585 51.194 46.1552 64.2602 46.1552 80.375L46.1435 80.6789C46.0202 81.9814 44.9328 83 43.6097 83C42.2039 83 41.0642 81.8501 41.0642 80.4315L41.0693 79.7704C41.3841 61.0666 56.2789 45.944 74.5321 45.944ZM11.9333 56.6734C19.4048 51.3173 28.9489 50.0558 37.4935 53.2947L37.7208 53.3935C38.8962 53.9721 39.4712 55.3629 39.0175 56.6287L38.8959 56.9337C38.3468 58.1031 36.9943 58.6807 35.7354 58.221L35.1348 58.003C28.3066 55.6344 20.7733 56.7284 14.8402 60.9807C8.73451 65.3566 5.09453 72.5245 5.09096 80.1765L5.07931 80.485C4.95596 81.7874 3.86861 82.8061 2.54548 82.8061C1.13965 82.8061 0 81.6561 0 80.2376L0.00743694 79.5282C0.212203 70.4026 4.63356 61.9063 11.9333 56.6734ZM27.8478 12.8247C37.7909 12.8254 45.8535 21.1194 45.8531 31.3534C45.8527 41.5873 37.7895 49.8807 27.8464 49.8807C17.9078 49.8666 9.85132 41.5792 9.83973 31.3501C9.84089 21.1166 17.9048 12.8239 27.8478 12.8247ZM28.1931 18.0721L27.4282 18.0797C20.4903 18.3135 14.9378 24.1653 14.9307 31.3501C14.9298 36.7194 18.0743 41.5616 22.9001 43.6184C27.7281 45.6761 33.2862 44.5396 36.9808 40.7401C40.6729 36.9431 41.7773 31.2342 39.7801 26.2741L39.591 25.8277C37.5615 21.2656 33.1978 18.2665 28.32 18.0835L28.1926 18.0812L28.1931 18.0721ZM74.5321 0C86.3732 0 95.9751 9.87623 95.9751 22.0625C95.9751 34.2488 86.3732 44.125 74.5321 44.125C62.6969 44.1107 53.1031 34.2426 53.0891 22.0621C53.0891 9.87623 62.691 0 74.5321 0ZM74.8788 5.24074L74.5317 5.24117L74.0661 5.24842C65.2505 5.51243 58.186 12.9398 58.1801 22.0623C58.1801 31.3463 65.4996 38.875 74.5321 38.875C83.5646 38.875 90.8841 31.3463 90.8841 22.0625L90.8776 21.5839C90.6355 12.6803 83.6601 5.50567 74.9977 5.25667L74.8784 5.254L74.8788 5.24074Z"/></svg>