<svg width="105" height="105" viewBox="0 0 105 105" fill="none" xmlns="http://www.w3.org/2000/svg">
<path d="M18.375 10.2188V86.7812C18.375 87.9416 18.8359 89.0544 19.6564 89.8748C20.4769 90.6953 21.5897 91.1562 22.75 91.1562H27.8469V5.84375H22.75C21.5897 5.84375 20.4769 6.30469 19.6564 7.12516C18.8359 7.94563 18.375 9.05843 18.375 10.2188V10.2188ZM27.8469 5.84375V91.1562H82.25C83.4103 91.1562 84.5231 90.6953 85.3436 89.8748C86.1641 89.0544 86.625 87.9416 86.625 86.7812V10.2188C86.625 9.05843 86.1641 7.94563 85.3436 7.12516C84.5231 6.30469 83.4103 5.84375 82.25 5.84375H27.8469Z" stroke="#1BC88C" stroke-width="5" stroke-linecap="round" stroke-linejoin="round"/>
<path d="M44.3341 21.4976H70.1378V34.4935H44.3341V21.4976Z" stroke="#1BC88C" stroke-width="5" stroke-linecap="round" stroke-linejoin="round"/>
</svg>
