<svg xmlns="http://www.w3.org/2000/svg" width="385" height="100" fill="none" viewBox="0 0 385 100"><path fill="#E6D2AF" d="M34.8603 34.9116C33.7025 39.3811 32.2551 44.0162 30.5183 48.8168C28.8642 53.6175 27.1274 58.1697 25.3078 62.4738C25.2251 62.6393 25.0184 63.0532 24.6875 63.7153C24.3567 64.2947 24.1086 64.543 23.9432 64.4602C23.6951 64.4602 23.571 64.1291 23.571 63.467C23.6538 62.7221 23.7364 62.2255 23.8191 61.9771C23.9019 60.9839 24.0673 59.7424 24.3154 58.2525C24.5635 56.7627 24.8116 55.2315 25.0597 53.6588C25.3906 52.0862 25.7213 50.555 26.0522 49.0651C26.4657 47.5753 26.8379 46.2924 27.1687 45.2163C27.3341 44.8852 27.5822 44.0576 27.9131 42.7333C28.2439 41.4089 28.5747 39.8364 28.9055 38.0154C29.319 36.1117 29.7326 34.0425 30.1461 31.8077C30.5596 29.5729 30.9318 27.3795 31.2626 25.2275L29.7739 24.8551C29.3604 27.752 28.7401 30.7317 27.9131 33.7942C27.1687 36.7739 26.3003 39.7949 25.3078 42.8574C24.3981 45.8371 23.4883 48.8996 22.5786 52.0448C21.6688 55.1073 20.8417 58.1697 20.0974 61.2322C19.4358 64.1291 18.9395 67.1503 18.6087 70.2955C18.2779 73.4407 18.1538 76.6273 18.2365 79.8553C18.3193 83.0003 18.6914 86.1042 19.353 89.1669C20.0147 92.1466 21.0071 94.9191 22.3304 97.4852C22.5786 98.0648 22.6613 98.3543 22.5786 98.3543C22.4132 98.3543 22.2891 98.3131 22.2064 98.2301L21.9583 97.9818C19.6425 95.2504 17.9057 92.3119 16.7478 89.1669C15.6726 85.9389 14.9697 82.6279 14.6388 79.2346C14.3907 75.841 14.4735 72.4061 14.887 68.9298C15.3005 65.4535 15.8794 62.0599 16.6238 58.7491C18.0297 52.6242 19.6839 46.7476 21.5861 41.1193C23.4883 35.4082 25.101 29.8212 26.4244 24.3585C21.462 23.5307 16.7892 22.7858 12.4058 22.1237C8.10509 21.3788 4.0939 21.3788 0.372162 22.1237C0.124046 22.1237 -1.52588e-05 22.0823 -1.52588e-05 21.9995C-1.52588e-05 21.834 0.0413414 21.7512 0.124046 21.7512C0.289458 21.6684 0.413511 21.5857 0.496216 21.5029C3.3082 19.8476 6.2856 18.937 9.4284 18.7715C12.6539 18.606 15.9622 18.7715 19.353 19.2681C22.8267 19.682 26.3416 20.2614 29.898 21.0063C33.537 21.6684 37.1761 22.0409 40.8151 22.1237C43.0481 22.2065 45.3639 22.0409 47.7623 21.6271C50.2435 21.1305 52.6006 20.4269 54.8336 19.5164C57.1494 18.5232 59.217 17.2403 61.0366 15.6677C62.9388 14.095 64.4689 12.2327 65.6267 10.0807C65.7921 9.66689 65.9576 9.45996 66.1229 9.45996V9.83243V10.0807C65.2132 13.226 63.8072 15.8332 61.905 17.9025C60.0028 19.8889 57.811 21.5029 55.3299 22.7445C52.9315 23.986 50.3262 24.8551 47.5142 25.3517C44.785 25.7655 42.097 25.9311 39.4505 25.8483C39.864 28.4142 39.864 31.3939 39.4505 34.7874C39.1196 38.1809 38.582 41.6159 37.8377 45.0922C37.0934 48.5685 36.3077 51.8793 35.4806 55.0245C34.6535 58.087 33.9919 60.5701 33.4957 62.4738C32.5032 66.4467 31.3454 70.5024 30.022 74.6409C28.6987 78.7791 27.4996 82.4214 26.4244 85.5664C26.259 85.98 26.0522 86.3525 25.8041 86.6838C25.6387 87.0151 25.4732 87.1393 25.3078 87.0563C25.1424 86.9733 25.0597 86.7668 25.0597 86.4355C25.1424 86.0219 25.1838 85.6076 25.1838 85.194C25.4319 78.9863 26.3416 72.7785 27.9131 66.5708C29.4845 60.3631 31.1799 54.1141 32.9994 47.8236C33.9919 44.3473 34.943 40.8296 35.8528 37.2705C36.8452 33.7114 37.5483 29.904 37.9618 25.8483C37.5483 25.7655 37.1761 25.7242 36.8452 25.7242C36.5971 25.7242 36.2663 25.7242 35.8528 25.7242C35.8528 27.3795 35.77 28.9935 35.6047 30.5662C35.5219 32.1388 35.2738 33.5872 34.8603 34.9116ZM38.2099 8.46674C41.4354 8.88058 44.7022 9.21166 48.0105 9.45996C51.3187 9.70827 54.172 9.83243 56.5705 9.83243C57.3975 9.83243 57.8111 9.95659 57.8111 10.2049C57.8111 10.536 57.3975 10.8257 56.5705 11.074C52.3525 12.7293 47.8864 13.4743 43.1722 13.3087C38.5407 13.1432 33.8265 12.688 29.0296 11.9431C26.1349 11.5292 23.1575 11.1153 20.0974 10.7015C17.0373 10.2877 13.7291 10.2877 10.1727 10.7015C9.8419 10.7843 9.67652 10.7429 9.67652 10.5774C9.67652 10.4118 9.75925 10.2877 9.92463 10.2049C10.09 10.1221 10.2555 9.99795 10.4209 9.83243C11.9923 8.67366 14.0186 7.92873 16.4997 7.59765C18.9809 7.18381 21.5448 7.01827 24.1913 7.10104C26.9206 7.10104 29.5258 7.26657 32.007 7.59765C34.4881 7.92873 36.5558 8.21842 38.2099 8.46674ZM19.6012 12.3155C23.0748 12.8121 26.5897 13.4329 30.1461 14.1778C33.7851 14.9228 37.3001 15.7505 40.691 16.6609C40.8564 16.8264 41.1873 16.992 41.6835 17.1575C42.2625 17.2403 42.5519 17.4058 42.5519 17.6541C42.5519 17.8197 42.3038 17.9438 41.8076 18.0266C41.3113 18.1094 40.9392 18.2335 40.691 18.3991C39.9467 18.5646 38.9956 18.6474 37.8377 18.6474C36.7625 18.6474 35.6047 18.6474 34.3641 18.6474C33.2062 18.5646 32.0483 18.4819 30.8904 18.3991C29.7326 18.3163 28.7401 18.1921 27.9131 18.0266C27.3341 17.9438 25.8868 17.7783 23.571 17.53C21.338 17.2817 18.8568 17.1162 16.1275 17.0334C13.3983 16.9506 10.7517 16.992 8.18782 17.1575C5.70666 17.2403 3.9285 17.5713 2.85332 18.1508C2.5225 18.3163 2.31574 18.3991 2.23303 18.3991H2.10897C2.10897 18.068 2.27439 17.7369 2.60521 17.4058C3.43227 16.3298 4.54879 15.4194 5.95478 14.6744C7.44347 13.9295 8.9735 13.3501 10.5449 12.9363C12.1164 12.5225 13.6877 12.2742 15.2591 12.1914C16.9132 12.1086 18.3606 12.15 19.6012 12.3155ZM23.6951 89.1669C23.9432 90.5737 24.2326 91.9813 24.5635 93.3881C24.977 94.795 25.4732 96.1607 26.0522 97.4852C26.383 98.1471 26.4244 98.4784 26.1762 98.4784C26.0109 98.4784 25.7627 98.3954 25.4319 98.2301C25.2665 98.1471 25.1424 98.023 25.0597 97.8577C23.9845 96.6161 23.1161 95.4576 22.4545 94.3814C21.8755 93.3051 21.3793 91.567 20.9658 89.1669C20.8004 88.2567 20.6764 87.0974 20.5936 85.6906C20.5936 84.2837 20.635 82.918 20.7177 81.5935C20.8004 80.2689 20.9245 79.1515 21.0899 78.2413C21.2552 77.3311 21.5034 76.8756 21.8342 76.8756C21.9169 76.8756 21.9996 77.0828 22.0823 77.4964C22.2477 77.91 22.3718 78.4066 22.4545 78.9863C22.5372 79.4829 22.6199 80.0206 22.7026 80.6003C22.7853 81.0969 22.8267 81.4282 22.8267 81.5935C22.9921 83.0003 23.1161 84.3249 23.1988 85.5664C23.3642 86.808 23.5297 88.0084 23.6951 89.1669ZM59.6719 11.4464C61.4915 9.87379 63.0215 8.17704 64.2621 6.35611C64.4275 6.02504 64.5929 5.8595 64.7583 5.8595C64.841 5.8595 64.8824 6.14919 64.8824 6.72858C64.8824 7.05966 64.841 7.34935 64.7583 7.59765C64.4275 9.00474 64.0553 10.1221 63.6418 10.9498C63.2283 11.7775 62.2358 12.7708 60.6644 13.9295C60.0854 14.4261 59.2997 14.9228 58.3073 15.4194C57.3148 15.8332 56.3637 16.2057 55.4539 16.5368C54.5442 16.8679 53.7171 17.0747 52.9728 17.1575C52.3112 17.1575 51.939 16.992 51.8563 16.6609C51.8563 16.5781 51.9803 16.454 52.2284 16.2884C52.4766 16.0401 52.766 15.7918 53.0968 15.5435C53.5103 15.2952 53.8825 15.0883 54.2134 14.9228C54.5442 14.6744 54.7923 14.5089 54.9577 14.4261C55.7848 14.0123 56.5705 13.5571 57.3148 13.0604C58.1419 12.5638 58.9276 12.0258 59.6719 11.4464ZM97.7575 44.4718C98.4196 45.2995 98.9158 46.3341 99.2462 47.5757C99.6602 48.8172 99.8254 50.1829 99.7424 51.6728C99.6602 53.0798 99.3291 54.5697 98.75 56.1423C98.1715 57.715 97.2612 59.2462 96.0207 60.7361C93.6224 63.5502 90.9761 65.7436 88.0809 67.3162C85.2695 68.8061 82.7053 69.551 80.3895 69.551C78.9835 69.551 78.9835 69.3027 80.3895 68.8061C81.1337 68.5578 82.0021 68.1853 82.9946 67.6887C84.07 67.1093 85.1865 66.4471 86.3441 65.7022C87.5025 64.8745 88.6601 63.9227 89.8178 62.8467C91.0583 61.7707 92.1749 60.5291 93.1673 59.122C94.8219 56.8045 95.7725 54.5697 96.0207 52.4177C96.3517 50.1829 95.9385 48.4861 94.7801 47.3274C93.7876 46.3341 92.63 45.7961 91.3065 45.7134C89.9837 45.5478 87.9987 46.2513 85.3517 47.824C82.9535 49.231 80.803 50.9692 78.9008 53.0384C76.9985 55.1077 75.2204 57.3011 73.5663 59.6186C72.6565 60.7774 72.0362 61.3568 71.7054 61.3568C71.4573 61.3568 71.5814 60.6119 72.0776 59.122C73.0701 56.2251 74.4347 53.5351 76.1715 51.052C77.991 48.5689 80.1414 46.4583 82.6224 44.7201C84.4422 43.4786 86.096 42.6095 87.5847 42.1129C89.1564 41.6163 90.5621 41.4093 91.8027 41.4921C93.1262 41.5749 94.2838 41.9059 95.2763 42.4854C96.2688 42.982 97.0961 43.6441 97.7575 44.4718ZM104.457 53.1626C104.126 55.1491 103.588 56.8458 102.844 58.2529C102.182 59.5772 101.397 60.736 100.487 61.7293C99.6602 62.6397 98.7918 63.3846 97.8815 63.9641C97.055 64.5435 96.3106 65.0815 95.6485 65.5781C95.3182 65.8264 95.07 65.8677 94.9041 65.7022C94.739 65.5367 94.863 65.247 95.2763 64.8331C96.765 63.5916 98.2537 61.9362 99.7424 59.8669C101.314 57.715 102.141 55.356 102.224 52.7901C102.224 48.4034 101.149 45.0512 98.9981 42.7336C96.848 40.4161 94.1598 39.4229 90.9343 39.754C87.7088 40.0023 84.3592 41.2438 80.8857 43.4786C78.6527 44.8856 76.6678 46.5411 74.9309 48.4447C73.2768 50.2657 71.8295 52.2522 70.5889 54.4041C69.3483 56.4734 68.3145 58.6254 67.4875 60.8602C66.7431 63.095 66.2055 65.3297 65.8747 67.5645C65.5438 69.7165 65.213 72.0341 64.8823 74.5172C64.6341 77.0002 64.6341 79.4421 64.8823 81.8422C65.213 84.2423 65.9988 86.5601 67.2393 88.7949C68.4799 90.9467 70.4234 92.8089 73.0701 94.3818C73.4836 94.6301 73.8971 94.7954 74.3107 94.8785C74.8069 94.9615 75.055 95.0437 75.055 95.1267C75.055 95.292 74.8482 95.375 74.4347 95.375C74.0211 95.4581 73.5663 95.4162 73.0701 95.2509C71.0024 94.8373 69.2243 94.0093 67.7356 92.7678C66.3295 91.4432 65.1717 89.9534 64.262 88.2983C63.3522 86.6431 62.6492 84.9049 62.153 83.0838C61.6568 81.2626 61.3672 79.6075 61.2846 78.1176C60.7883 71.5788 61.6981 65.1228 64.0139 58.7495C64.5101 57.4252 65.1303 55.9354 65.8747 54.28C66.7017 52.6246 67.6942 50.9692 68.8521 49.3138C70.01 47.5757 71.3746 45.9203 72.946 44.3477C74.5174 42.6923 76.2956 41.2438 78.2805 40.0023C80.1827 38.8435 82.168 37.9745 84.2352 37.3951C86.303 36.8156 88.3709 36.5673 90.438 36.6501C92.5059 36.6501 94.4498 37.0226 96.2688 37.7675C98.0885 38.4297 99.7013 39.4643 101.107 40.8713C102.348 42.1957 103.299 43.8924 103.96 45.9617C104.705 48.0309 104.871 50.4312 104.457 53.1626ZM93.1673 48.6931C94.1598 49.8518 94.2839 51.6727 93.5395 54.1558C92.7952 56.5561 91.0583 58.9979 88.3291 61.481C86.8404 62.888 85.3935 64.0468 83.987 64.9573C82.5813 65.785 80.803 66.5299 78.6527 67.1921C77.7429 70.3373 77.164 73.4409 76.9159 76.5036C76.6678 79.5663 76.7504 82.0494 77.164 83.9529C77.2466 84.6978 77.4948 85.4427 77.9083 86.1877C78.4046 86.8496 79.0662 87.3881 79.8933 87.8017C80.803 88.133 81.961 88.2571 83.3667 88.1741C84.7732 88.0911 86.51 87.6364 88.5772 86.8084C89.1564 86.5601 89.4874 86.519 89.5697 86.6843C89.7356 86.7673 89.4874 87.0156 88.8253 87.4292C87.3366 88.5877 85.7657 89.4157 84.1111 89.9123C82.4572 90.3259 80.8857 90.45 79.397 90.2847C77.991 90.1194 76.7504 89.6228 75.6753 88.7949C74.6828 87.967 74.0211 86.8496 73.6904 85.4427C73.0287 82.546 72.7392 79.5245 72.8219 76.3795C72.9046 73.2345 73.3595 70.1304 74.1866 67.0679C75.0963 64.0054 76.3369 61.1498 77.9083 58.5012C79.5624 55.7698 81.5888 53.4523 83.987 51.5486C88.4531 47.9895 91.5135 47.0377 93.1673 48.6931ZM91.9267 88.2983C91.3483 89.1262 90.604 89.9534 89.6937 90.7813C88.8671 91.5263 87.8747 92.2301 86.7163 92.892C85.6416 93.4716 84.4833 93.9682 83.2427 94.3818C82.0851 94.7954 80.8857 95.0026 79.6451 95.0026C77.4948 95.0026 75.4685 94.5471 73.5663 93.6369C71.7468 92.6436 70.3408 90.6984 69.3483 87.8017C69.1829 87.4704 69.1002 87.1809 69.1002 86.9326C69.1002 86.6012 69.1829 86.436 69.3483 86.436C69.6791 86.2707 70.0099 86.3948 70.3408 86.8084C70.6716 87.1397 71.0024 87.5122 71.3333 87.9258C72.243 89.0021 73.4008 89.9534 74.8069 90.7813C76.2956 91.6093 77.7015 92.0229 79.0249 92.0229C81.5059 92.0229 83.6567 91.6504 85.4757 90.9055C87.2955 90.1606 89.0323 89.1674 90.6862 87.9258C91.1002 87.6775 91.5546 87.4292 92.0508 87.1809C92.63 86.9325 92.5889 87.3051 91.9267 88.2983ZM90.1899 52.0452C89.8596 51.3831 88.6601 51.9211 86.5923 53.6592C84.6903 55.1491 83.1605 56.8872 82.0021 58.8737C80.9274 60.7774 79.9759 62.888 79.1489 65.2056C80.7203 64.4607 82.168 63.6329 83.4908 62.7225C84.8143 61.7293 86.0549 60.7774 87.2125 59.8669C88.4531 58.7909 89.3634 57.3838 89.9418 55.6457C90.521 53.9075 90.604 52.7073 90.1899 52.0452ZM131.718 30.4424C132.215 28.6215 132.546 26.4282 132.711 23.8623C132.876 21.2137 132.876 18.6065 132.711 16.0406C132.546 13.392 132.132 10.909 131.47 8.59144C130.891 6.27389 129.982 4.49435 128.741 3.25281C128.245 2.75619 127.832 2.59066 127.501 2.7562C127.252 2.92174 127.335 3.33559 127.749 3.99775C128.576 5.48759 128.948 7.80517 128.865 10.9504C128.865 14.0129 128.617 17.3649 128.121 21.0067C127.625 24.6486 126.963 28.2904 126.136 31.9323C125.309 35.5741 124.482 38.7607 123.655 41.4921C123.241 42.6508 122.827 44.0993 122.414 45.8375C122.001 47.5757 121.546 49.3552 121.05 51.1761C120.636 52.9143 120.264 54.6524 119.933 56.3906C119.602 58.046 119.354 59.4531 119.189 60.6119C119.189 60.8602 119.148 61.3568 119.065 62.1017C118.982 62.7639 119.065 63.1778 119.313 63.3433C119.478 63.3433 119.726 63.0122 120.057 62.3501C120.388 61.6051 120.594 61.1499 120.677 60.9843C122.662 56.3493 124.688 51.4244 126.756 46.21C128.824 40.9127 130.478 35.6569 131.718 30.4424ZM128.865 60.7361C129.278 59.2462 129.858 57.301 130.602 54.9008C131.346 52.5005 132.091 49.8932 132.835 47.079C133.579 44.1821 134.283 41.2025 134.944 38.14C135.688 34.9948 136.226 31.9736 136.557 29.0767C136.97 26.097 137.094 23.3657 136.929 20.8826C136.846 18.3995 136.433 16.3717 135.688 14.7991C135.605 14.5508 135.44 14.3025 135.192 14.0542C134.944 13.8059 134.82 14.0128 134.82 14.6749C134.985 19.9722 134.448 25.2693 133.207 30.5666C131.967 35.8639 130.643 40.6644 129.237 44.9684C128.162 48.3619 127.045 51.7556 125.888 55.1491C124.812 58.5426 123.862 61.9362 123.034 65.3298C122.29 68.6405 121.794 71.9099 121.546 75.1379C121.381 78.3659 121.711 81.4698 122.538 84.4495C122.869 85.5257 123.159 86.0635 123.407 86.0635C123.655 85.9805 123.779 85.4427 123.779 84.4495C123.779 82.9596 123.903 81.3045 124.151 79.4833C124.482 77.5799 124.895 75.5934 125.392 73.5239C125.888 71.4546 126.425 69.344 127.004 67.1921C127.583 64.9573 128.204 62.8053 128.865 60.7361ZM126.508 94.7543C123.614 94.423 121.008 92.975 118.692 90.4089C116.459 87.8428 114.971 84.6978 114.226 80.9732C113.482 77.4139 113.275 73.8134 113.606 70.1718C114.019 66.4471 114.681 62.9708 115.591 59.7428C116.915 54.7766 118.485 49.6863 120.305 44.4718C122.125 39.1745 123.655 33.9601 124.895 28.8284C126.219 23.6968 126.963 18.772 127.128 14.0542C127.294 9.25354 126.467 4.86684 124.647 0.89391C124.482 0.811138 124.358 0.645598 124.275 0.397297C124.192 0.0662175 124.068 -0.0579385 123.903 0.0248304C123.655 0.0248304 123.614 0.314526 123.779 0.89391C124.44 4.7013 124.482 8.83974 123.903 13.3093C123.324 17.696 122.373 22.2896 121.05 27.0903C119.809 31.8081 118.361 36.6915 116.708 41.7404C115.136 46.7894 113.647 51.8383 112.241 56.8872C111.166 60.6119 110.422 64.5848 110.008 68.8061C109.677 72.9445 109.967 77.1244 110.877 81.3456C111.373 83.4973 112.117 85.4427 113.11 87.1809C114.185 88.919 115.426 90.4089 116.832 91.6504C118.237 92.809 119.768 93.7199 121.422 94.3818C123.076 95.0437 124.771 95.3339 126.508 95.2509H126.88C126.963 95.2509 127.087 95.2098 127.252 95.1267C127.252 94.8784 127.004 94.7543 126.508 94.7543ZM122.786 88.5466C121.298 86.8085 120.098 84.5736 119.189 81.8422C119.106 81.5939 118.982 81.2215 118.817 80.7249C118.651 80.1452 118.485 79.6075 118.32 79.1108C118.155 78.5312 117.989 78.0346 117.824 77.621C117.659 77.1244 117.535 76.876 117.452 76.876C117.121 76.876 116.956 77.4138 116.956 78.4901C116.956 79.5663 117.08 80.8078 117.328 82.2147C117.576 83.6215 117.948 85.0702 118.444 86.5601C118.941 87.9669 119.52 89.0843 120.181 89.9123C121.505 91.4021 122.827 92.3123 124.151 92.6437C125.557 92.975 126.963 93.1403 128.369 93.1403C128.865 93.1403 129.237 93.0161 129.485 92.7678C129.817 92.4365 129.61 92.1882 128.865 92.0229C126.467 91.7746 124.44 90.6161 122.786 88.5466ZM174.891 44.4718C175.553 45.2995 176.05 46.3341 176.38 47.5757C176.794 48.8172 176.959 50.1829 176.876 51.6728C176.794 53.0798 176.463 54.5697 175.884 56.1423C175.305 57.715 174.395 59.2462 173.155 60.7361C170.756 63.5502 168.11 65.7436 165.215 67.3162C162.403 68.8061 159.839 69.551 157.523 69.551C156.117 69.551 156.117 69.3027 157.523 68.8061C158.268 68.5578 159.136 68.1853 160.128 67.6887C161.204 67.1093 162.32 66.4471 163.478 65.7022C164.636 64.8745 165.794 63.9227 166.952 62.8467C168.192 61.7707 169.309 60.5291 170.301 59.122C171.956 56.8045 172.906 54.5697 173.155 52.4177C173.486 50.1829 173.072 48.4861 171.914 47.3274C170.921 46.3341 169.764 45.7961 168.44 45.7134C167.118 45.5478 165.133 46.2513 162.486 47.824C160.087 49.231 157.937 50.9692 156.035 53.0384C154.133 55.1077 152.355 57.3011 150.7 59.6186C149.791 60.7774 149.17 61.3568 148.839 61.3568C148.591 61.3568 148.715 60.6119 149.211 59.122C150.204 56.2251 151.568 53.5351 153.305 51.052C155.125 48.5689 157.275 46.4583 159.756 44.7201C161.576 43.4786 163.23 42.6095 164.719 42.1129C166.29 41.6163 167.696 41.4093 168.937 41.4921C170.26 41.5749 171.418 41.9059 172.41 42.4854C173.403 42.982 174.23 43.6441 174.891 44.4718ZM181.59 53.1626C181.26 55.1491 180.722 56.8458 179.978 58.2529C179.316 59.5772 178.531 60.736 177.621 61.7293C176.794 62.6397 175.926 63.3846 175.015 63.9641C174.189 64.5435 173.444 65.0815 172.782 65.5781C172.452 65.8264 172.204 65.8677 172.038 65.7022C171.873 65.5367 171.997 65.247 172.41 64.8331C173.899 63.5916 175.388 61.9362 176.876 59.8669C178.448 57.715 179.275 55.356 179.357 52.7901C179.357 48.4034 178.283 45.0512 176.132 42.7336C173.982 40.4161 171.294 39.4229 168.068 39.754C164.843 40.0023 161.493 41.2438 158.02 43.4786C155.786 44.8856 153.802 46.5411 152.065 48.4447C150.411 50.2657 148.963 52.2522 147.723 54.4041C146.482 56.4734 145.449 58.6254 144.621 60.8602C143.877 63.095 143.34 65.3297 143.008 67.5645C142.678 69.7165 142.347 72.0341 142.016 74.5172C141.768 77.0002 141.768 79.4421 142.016 81.8422C142.347 84.2423 143.133 86.5601 144.373 88.7949C145.614 90.9467 147.557 92.8089 150.204 94.3818C150.618 94.6301 151.031 94.7954 151.444 94.8785C151.941 94.9615 152.189 95.0437 152.189 95.1267C152.189 95.292 151.982 95.375 151.568 95.375C151.155 95.4581 150.7 95.4162 150.204 95.2509C148.137 94.8373 146.358 94.0093 144.869 92.7678C143.464 91.4432 142.306 89.9534 141.396 88.2983C140.486 86.6431 139.783 84.9049 139.287 83.0838C138.791 81.2626 138.501 79.6075 138.418 78.1176C137.922 71.5788 138.832 65.1228 141.148 58.7495C141.644 57.4252 142.264 55.9354 143.008 54.28C143.836 52.6246 144.828 50.9692 145.986 49.3138C147.144 47.5757 148.509 45.9203 150.08 44.3477C151.651 42.6923 153.429 41.2438 155.414 40.0023C157.317 38.8435 159.302 37.9745 161.369 37.3951C163.437 36.8156 165.505 36.5673 167.572 36.6501C169.64 36.6501 171.584 37.0226 173.403 37.7675C175.222 38.4297 176.835 39.4643 178.241 40.8713C179.481 42.1957 180.433 43.8924 181.094 45.9617C181.839 48.0309 182.004 50.4312 181.59 53.1626ZM170.301 48.6931C171.294 49.8518 171.418 51.6727 170.673 54.1558C169.929 56.5561 168.192 58.9979 165.463 61.481C163.974 62.888 162.527 64.0468 161.121 64.9573C159.715 65.785 157.937 66.5299 155.786 67.1921C154.877 70.3373 154.298 73.4409 154.05 76.5036C153.801 79.5663 153.884 82.0494 154.298 83.9529C154.381 84.6978 154.629 85.4427 155.042 86.1877C155.538 86.8496 156.2 87.3881 157.027 87.8017C157.937 88.133 159.095 88.2571 160.501 88.1741C161.907 88.0911 163.644 87.6364 165.711 86.8084C166.29 86.5601 166.621 86.519 166.704 86.6843C166.869 86.7673 166.621 87.0156 165.959 87.4292C164.47 88.5877 162.9 89.4157 161.245 89.9123C159.591 90.3259 158.019 90.45 156.531 90.2847C155.125 90.1194 153.884 89.6228 152.809 88.7949C151.817 87.967 151.155 86.8496 150.824 85.4427C150.163 82.546 149.874 79.5245 149.956 76.3795C150.039 73.2345 150.494 70.1304 151.32 67.0679C152.231 64.0054 153.471 61.1498 155.042 58.5012C156.697 55.7698 158.723 53.4523 161.121 51.5486C165.587 47.9895 168.647 47.0377 170.301 48.6931ZM169.061 88.2983C168.482 89.1262 167.738 89.9534 166.828 90.7813C166.001 91.5263 165.009 92.2301 163.85 92.892C162.776 93.4716 161.617 93.9682 160.377 94.3818C159.219 94.7954 158.019 95.0026 156.779 95.0026C154.629 95.0026 152.603 94.5471 150.7 93.6369C148.881 92.6436 147.475 90.6984 146.482 87.8017C146.317 87.4704 146.234 87.1809 146.234 86.9326C146.234 86.6012 146.317 86.436 146.482 86.436C146.813 86.2707 147.144 86.3948 147.475 86.8084C147.806 87.1397 148.137 87.5122 148.467 87.9258C149.377 89.0021 150.535 89.9534 151.941 90.7813C153.429 91.6093 154.836 92.0229 156.159 92.0229C158.64 92.0229 160.791 91.6504 162.61 90.9055C164.429 90.1606 166.166 89.1674 167.82 87.9258C168.234 87.6775 168.688 87.4292 169.185 87.1809C169.764 86.9325 169.723 87.3051 169.061 88.2983ZM167.324 52.0452C166.993 51.3831 165.794 51.9211 163.726 53.6592C161.824 55.1491 160.294 56.8872 159.136 58.8737C158.061 60.7774 157.11 62.888 156.283 65.2056C157.854 64.4607 159.302 63.6329 160.625 62.7225C161.948 61.7293 163.189 60.7774 164.346 59.8669C165.587 58.7909 166.497 57.3838 167.076 55.6457C167.655 53.9075 167.738 52.7073 167.324 52.0452ZM218.777 89.9123C221.754 89.4157 224.608 88.5054 227.337 87.1809C230.149 85.8563 232.672 84.16 234.905 82.0905C235.07 82.0075 235.401 81.7181 235.897 81.2215C236.393 80.7249 236.724 80.5596 236.889 80.7249C237.055 80.8902 237.014 81.1384 236.765 81.4698C236.517 81.8011 236.31 82.0905 236.145 82.3388C234.491 84.7389 232.299 86.7254 229.57 88.2983C226.924 89.7881 224.153 90.9885 221.258 91.8988C218.86 92.5607 216.296 92.8089 213.567 92.6437C210.837 92.3953 208.273 91.6916 205.875 90.5331C205.131 90.2017 204.676 89.9534 204.51 89.7881C204.345 89.5398 204.345 89.3745 204.51 89.2915C204.676 89.2085 204.924 89.1674 205.255 89.1674C205.668 89.1674 206.04 89.2085 206.371 89.2915C207.281 89.4568 208.315 89.6228 209.473 89.7881C210.713 89.8711 211.913 89.9534 213.07 90.0364C214.311 90.0364 215.427 90.0364 216.42 90.0364C217.412 90.0364 218.198 89.9953 218.777 89.9123ZM202.153 53.4109C201.74 56.3078 201.533 59.1634 201.533 61.9776C201.533 64.709 201.698 67.3162 202.029 69.7993C202.442 72.1996 203.022 74.3518 203.766 76.2553C204.593 78.1587 205.586 79.7316 206.743 80.9732C208.067 82.2977 209.68 83.3321 211.582 84.077C213.567 84.7389 215.676 85.0703 217.909 85.0703C220.225 85.0703 222.623 84.7389 225.104 84.077C227.668 83.4151 230.19 82.38 232.672 80.9732C233.168 80.6419 233.499 80.5596 233.664 80.7249C233.829 80.8902 233.747 81.0973 233.416 81.3456C233.168 81.5109 232.92 81.6769 232.672 81.8422C230.521 83.4973 228.247 84.822 225.848 85.8152C223.45 86.8084 221.01 87.4292 218.529 87.6775C216.131 87.9258 213.774 87.8016 211.458 87.305C209.225 86.7254 207.199 85.691 205.379 84.2012C203.642 82.7113 202.236 80.932 201.161 78.8626C200.085 76.7108 199.259 74.393 198.68 71.9099C198.183 69.344 197.894 66.6954 197.811 63.9641C197.728 61.2327 197.811 58.5426 198.059 55.894C198.39 51.6727 199.217 47.4101 200.54 43.1061C201.864 38.8021 203.601 34.8292 205.751 31.1874C207.984 27.5455 210.63 24.3589 213.691 21.6275C216.751 18.8961 220.183 16.9925 223.987 15.9165C225.889 15.4198 227.833 15.2129 229.818 15.2957C231.803 15.3785 233.623 15.7509 235.277 16.4131C237.014 17.0752 238.502 18.0684 239.743 19.3928C240.983 20.6343 241.811 22.1655 242.224 23.9864C242.637 25.9729 242.472 27.918 241.728 29.8217C240.983 31.6426 239.95 33.2566 238.626 34.6637C237.303 35.988 235.814 36.9398 234.16 37.5192C232.506 38.0986 230.935 38.0986 229.446 37.5192C229.363 37.5192 229.281 37.395 229.198 37.1467C229.198 36.8984 229.363 36.8156 229.694 36.8984C230.687 37.064 231.803 36.8571 233.044 36.2777C234.367 35.6155 235.525 34.7464 236.517 33.6704C237.593 32.5944 238.419 31.3115 238.999 29.8217C239.66 28.3318 239.867 26.8006 239.619 25.228C239.371 24.0692 238.833 23.076 238.006 22.2483C237.262 21.3379 236.269 20.6343 235.029 20.1377C233.788 19.5583 232.382 19.1858 230.811 19.0203C229.322 18.8548 227.75 18.9375 226.096 19.2686C222.954 19.848 220.018 21.255 217.288 23.4898C214.642 25.6418 212.285 28.2905 210.217 31.4357C208.149 34.5809 206.412 38.0986 205.007 41.9887C203.601 45.7962 202.65 49.6035 202.153 53.4109ZM211.954 94.506C212.863 94.589 213.774 94.6302 214.683 94.6302C215.676 94.6302 216.172 94.7543 216.172 95.0026C216.172 95.0856 216.007 95.1267 215.676 95.1267C215.345 95.2098 214.972 95.2509 214.559 95.2509C214.228 95.2509 213.856 95.2509 213.443 95.2509C213.029 95.2509 212.781 95.2509 212.698 95.2509C210.134 95.2509 207.612 94.8784 205.131 94.1335C202.65 93.3886 200.334 92.3542 198.183 91.0296C196.116 89.6228 194.255 87.9258 192.601 85.9393C190.947 83.9529 189.706 81.6769 188.879 79.1108C187.225 74.0617 186.274 69.1371 186.026 64.3365C185.778 59.5358 185.985 54.818 186.646 50.1829C186.977 47.5343 187.597 44.5546 188.507 41.2438C189.499 37.8503 190.781 34.4153 192.353 30.939C194.007 27.4627 196.033 24.0278 198.432 20.6343C200.913 17.2408 203.849 14.137 207.24 11.3229C210.796 8.34315 214.724 6.35667 219.025 5.36344C223.408 4.37021 227.585 4.20467 231.555 4.86683C235.525 5.52899 239.04 6.93607 242.1 9.08808C245.16 11.1573 247.186 13.8058 248.179 17.0338C248.262 17.1994 248.344 17.5718 248.427 18.1512C248.51 18.6478 248.468 18.9789 248.303 19.1444C248.22 19.2272 248.096 19.0203 247.931 18.5237C247.766 18.0271 247.6 17.696 247.434 17.5305C243.961 12.8126 240.032 9.83298 235.649 8.59144C231.266 7.2671 226.924 7.14297 222.623 8.219C218.322 9.21223 214.27 11.1158 210.465 13.93C206.66 16.6614 203.642 19.7239 201.409 23.1174C197.522 28.994 194.545 35.243 192.477 41.8646C190.492 48.4861 189.582 55.3146 189.747 62.3501C189.83 65.5781 190.161 68.9715 190.74 72.5306C191.401 76.09 192.642 79.4833 194.462 82.7113C196.281 86.0223 198.763 88.7949 201.905 91.0296C205.131 93.1814 208.48 94.3407 211.954 94.506ZM194.09 47.824C194.751 43.4372 195.785 39.1746 197.191 35.0361C198.68 30.8977 200.582 27.1316 202.898 23.7381C205.296 20.2618 208.232 17.2822 211.706 14.7991C215.179 12.316 219.273 10.5779 223.987 9.58469C225.641 9.25359 227.502 9.12943 229.57 9.21222C231.638 9.21222 233.705 9.58467 235.773 10.3296C237.841 10.9917 239.743 12.0264 241.48 13.4334C243.299 14.8405 244.788 16.7855 245.946 19.2686C247.021 21.6689 247.393 24.0278 247.062 26.3453C246.731 28.6629 246.029 30.7735 244.953 32.6772C243.878 34.4981 242.555 36.0293 240.983 37.2709C239.412 38.5124 237.882 39.216 236.393 39.3815C235.484 39.547 234.988 39.547 234.905 39.3815C234.822 39.1332 235.277 38.8435 236.269 38.5124C237.841 38.0158 239.412 36.7743 240.983 34.7878C242.637 32.7186 243.63 30.1113 243.961 26.9661C244.126 25.3935 243.92 23.8623 243.341 22.3724C242.761 20.7998 241.935 19.4341 240.859 18.2754C239.784 17.1166 238.502 16.1234 237.014 15.2957C235.525 14.468 233.953 13.93 232.299 13.6817C228.743 13.1851 225.476 13.4334 222.499 14.4267C219.521 15.4199 216.916 16.7028 214.683 18.2754C212.533 19.7652 210.754 21.2551 209.349 22.7449C208.025 24.2348 207.199 25.228 206.868 25.7246C204.303 28.9526 202.07 32.4702 200.168 36.2777C198.266 40.0023 196.695 43.9339 195.454 48.0723C195.454 48.1551 195.371 48.4448 195.206 48.9414C195.123 49.438 194.999 49.976 194.834 50.5554C194.751 51.052 194.627 51.5486 194.462 52.0452C194.297 52.459 194.172 52.666 194.09 52.666C193.924 52.666 193.841 52.4177 193.841 51.9211C193.841 51.4244 193.841 50.9278 193.841 50.4312C193.841 49.8518 193.882 49.3138 193.965 48.8172C194.048 48.3206 194.09 47.9895 194.09 47.824ZM257.016 97.1132C256.437 97.6928 256.065 97.9411 255.9 97.8581C255.734 97.7751 255.734 97.5687 255.9 97.2374C256.065 96.9891 256.189 96.7819 256.272 96.6166C256.933 95.8717 257.43 95.3339 257.761 95.0026C258.174 94.589 258.629 94.1747 259.125 93.7611C257.14 91.1127 255.693 88.2982 254.783 85.3186C253.873 82.2558 253.336 79.1108 253.171 75.8828C253.005 72.6548 253.129 69.3855 253.543 66.0747C254.039 62.7639 254.659 59.5358 255.404 56.3906C256.892 50.1829 258.587 44.1407 260.49 38.2641C262.475 32.3047 264.129 26.5937 265.452 21.1309C262.805 21.6275 260.407 22.2897 258.257 23.1174C256.189 23.9451 254.824 24.8555 254.163 25.8488C253.915 26.2626 253.667 26.4281 253.419 26.3453C253.253 26.2625 253.336 25.8901 253.667 25.228C254.328 23.8209 255.528 22.5794 257.265 21.5034C259.001 20.3446 260.986 19.3928 263.219 18.6478C265.452 17.9029 267.851 17.3235 270.415 16.9097C273.061 16.4959 275.583 16.3303 277.982 16.4131C283.358 16.5786 287.824 17.6132 291.38 19.5169C295.019 21.4206 296.88 24.2347 296.963 27.9594C296.963 30.2769 296.136 32.5944 294.482 34.912C292.91 37.2296 290.967 39.4228 288.651 41.4921C286.418 43.4786 284.019 45.2995 281.456 46.9549C278.892 48.5275 276.7 49.7691 274.881 50.6795L274.385 52.4177C275.625 51.3417 277.279 50.4726 279.347 49.8105C281.414 49.1483 283.565 48.8172 285.798 48.8172C288.113 48.8172 290.346 49.231 292.497 50.0588C294.73 50.8037 296.673 52.0452 298.328 53.7834C300.561 56.2664 301.967 59.1221 302.546 62.3501C303.207 65.4953 303.042 68.5991 302.049 71.6616C301.139 74.7243 299.609 77.2486 297.459 79.235C295.309 81.1385 293.117 82.5872 290.884 83.5804C290.636 83.7457 290.181 83.9529 289.52 84.2012C288.858 84.3665 288.444 84.3253 288.279 84.077C288.196 83.9117 288.403 83.6216 288.899 83.208C289.396 82.7113 289.768 82.38 290.016 82.2147C292.249 80.7248 294.151 78.6972 295.723 76.1311C297.293 73.565 298.245 70.9167 298.576 68.1853C298.989 65.3711 298.7 62.6811 297.707 60.1153C296.715 57.5494 294.771 55.5629 291.877 54.1558C290.718 53.5764 289.189 53.1626 287.287 52.9143C285.384 52.5832 283.482 52.5005 281.58 52.666C279.677 52.7488 277.899 53.1626 276.245 53.9075C274.674 54.6524 273.557 55.8112 272.896 57.3838C274.385 56.4734 276.079 55.7698 277.982 55.2732C279.884 54.7766 281.786 54.5696 283.689 54.6524C285.674 54.6524 287.535 55.0249 289.271 55.7698C291.008 56.432 292.455 57.4666 293.614 58.8737C295.019 60.6118 295.805 62.4328 295.971 64.3365C296.219 66.2402 296.012 68.1025 295.35 69.9235C294.771 71.7444 293.779 73.4409 292.373 75.0137C291.049 76.5866 289.52 77.9105 287.783 78.9867C285.467 80.3935 282.903 81.8011 280.091 83.208C277.279 84.5325 274.467 85.9394 271.655 87.4292C268.843 88.836 266.155 90.3678 263.591 92.0229C261.027 93.5958 258.835 95.292 257.016 97.1132ZM271.903 61.6051C270.415 65.3298 269.174 69.0957 268.182 72.9031C267.271 76.6278 266.238 80.063 265.08 83.208C264.666 84.2842 264.377 84.7808 264.212 84.6978C263.964 84.6148 263.84 84.4084 263.84 84.077C263.84 83.6634 263.84 83.2491 263.84 82.8355C264.088 76.5448 264.997 70.3373 266.569 64.2123C268.14 58.0046 269.836 51.7555 271.655 45.465C272.813 41.5749 273.888 37.602 274.881 33.5463C275.955 29.4078 276.576 24.9797 276.742 20.2618H274.633C274.715 22.4966 274.633 24.7314 274.385 26.9661C274.219 29.1181 273.929 30.9804 273.516 32.553C272.358 37.0226 270.952 41.6576 269.298 46.4583C267.644 51.2589 265.907 55.8112 264.088 60.1153C264.005 60.2808 263.798 60.6947 263.467 61.3568C263.219 61.9362 262.971 62.1845 262.723 62.1017C262.557 62.019 262.433 61.6465 262.351 60.9843C262.351 60.3222 262.392 59.8669 262.475 59.6186C262.557 58.6254 262.723 57.3838 262.971 55.894C263.302 54.4041 263.591 52.8729 263.84 51.3003C264.17 49.7277 264.501 48.1964 264.832 46.7066C265.245 45.2167 265.618 43.9338 265.949 42.8578C266.031 42.444 266.238 41.4921 266.569 40.0023C266.982 38.5124 267.395 36.7329 267.809 34.6637C268.223 32.5117 268.636 30.2355 269.05 27.8352C269.546 25.3521 269.96 22.9519 270.291 20.6343C269.628 20.6343 269.132 20.6757 268.802 20.7585C268.388 23.8209 267.768 26.9247 266.941 30.07C266.197 33.2152 265.328 36.4018 264.336 39.6298C263.343 42.8578 262.351 46.0858 261.358 49.3138C260.366 52.459 259.498 55.6457 258.753 58.8737C258.091 61.6051 257.595 64.4607 257.265 67.4404C256.933 70.4201 256.768 73.3998 256.768 76.3795C256.768 79.2761 257.016 82.1317 257.513 84.9461C258.009 87.7605 258.794 90.4501 259.87 93.0162L260.986 91.8988C260.738 91.3191 260.49 90.6161 260.242 89.7881C259.994 88.9602 259.787 87.9669 259.622 86.8084C259.456 85.8982 259.332 84.7389 259.249 83.3321C259.249 81.9253 259.291 80.5596 259.373 79.235C259.456 77.9105 259.58 76.793 259.746 75.8828C259.911 74.9726 260.159 74.5172 260.49 74.5172C260.572 74.5172 260.655 74.7243 260.738 75.1379C260.903 75.5515 261.027 76.0481 261.11 76.6278C261.193 77.2074 261.276 77.7452 261.358 78.2418C261.441 78.7384 261.482 79.1109 261.482 79.3592C261.565 80.1041 261.648 80.932 261.731 81.8422C261.813 82.7524 261.896 83.7046 261.979 84.6978C262.144 85.691 262.268 86.6843 262.351 87.6775C262.516 88.5877 262.723 89.3745 262.971 90.0364C264.873 88.2983 266.899 86.7673 269.05 85.4427C271.2 84.0359 273.309 82.7524 275.377 81.5939C277.527 80.4354 279.595 79.318 281.58 78.2418C283.565 77.1655 285.302 76.09 286.79 75.0137C289.354 73.2756 291.008 71.0822 291.753 68.4336C292.497 65.7022 292.042 63.2605 290.388 61.1085C289.313 59.7014 287.824 58.7082 285.922 58.1288C284.102 57.5493 282.2 57.3425 280.215 57.508C278.313 57.5908 276.576 58.0046 275.005 58.7495C273.433 59.4945 272.4 60.4464 271.903 61.6051ZM291.629 42.6095C291.794 42.6923 291.587 43.1475 291.008 43.9752C290.512 44.7201 290.181 45.2581 290.016 45.5892C292.827 45.1754 295.309 44.1821 297.459 42.6095C299.692 41.0369 301.47 39.1746 302.794 37.0226C304.117 34.7878 304.944 32.3875 305.275 29.8217C305.605 27.1731 305.357 24.5244 304.531 21.8758C303.703 19.2272 302.339 16.9925 300.437 15.1715C298.534 13.3506 296.343 11.8608 293.862 10.7021C291.381 9.54331 288.692 8.71562 285.798 8.219C282.903 7.72238 280.008 7.51542 277.114 7.59821C274.219 7.59821 271.448 7.84653 268.802 8.34314C266.155 8.83976 263.84 9.54333 261.855 10.4538C261.441 10.6193 261.193 10.7021 261.11 10.7021C261.11 10.7021 261.068 10.6607 260.986 10.5779C260.903 10.3296 261.11 10.0399 261.607 9.70884C263.674 7.88789 266.279 6.52222 269.422 5.61176C272.648 4.70129 275.997 4.24604 279.471 4.24604C283.027 4.24604 286.583 4.74267 290.14 5.73591C293.696 6.64637 296.88 8.09484 299.692 10.0813C302.587 11.985 304.944 14.468 306.764 17.5305C308.666 20.5102 309.699 24.0278 309.865 28.0835C309.947 30.5666 309.617 32.8427 308.873 34.912C308.128 36.8985 307.136 38.6779 305.895 40.2506C304.655 41.8232 303.207 43.1889 301.553 44.3477C299.982 45.4237 298.328 46.3341 296.591 47.079C299.32 48.3206 301.677 50.2657 303.662 52.9143C305.647 55.4802 307.053 58.046 307.88 60.6119C308.873 64.0054 309.079 67.2334 308.501 70.2959C308.004 73.3586 307.094 76.1312 305.771 78.6142C304.531 81.0973 303.083 83.2491 301.429 85.0703C299.858 86.8084 298.493 88.05 297.335 88.7949C294.936 90.3678 292.497 91.6093 290.016 92.5195C287.535 93.3474 285.095 94.0093 282.696 94.506C280.297 94.9196 277.982 95.2097 275.749 95.375C273.598 95.5403 271.655 95.6645 269.918 95.7475C268.595 95.9128 267.934 95.8717 267.934 95.6234C267.851 95.4581 268.058 95.292 268.554 95.1267C269.132 95.0437 269.628 94.9615 270.042 94.8785C273.268 94.2988 276.452 93.5127 279.595 92.5195C282.737 91.5263 285.922 90.2018 289.147 88.5466C290.718 87.7187 292.331 86.7673 293.986 85.691C295.723 84.5325 297.293 83.2079 298.7 81.7181C300.189 80.1452 301.429 78.4071 302.422 76.5036C303.496 74.6002 304.2 72.4893 304.531 70.1718C304.944 67.2749 304.861 64.4193 304.283 61.6051C303.786 58.7082 302.422 55.9353 300.189 53.2867C298.038 50.7209 295.764 48.9827 293.365 48.0723C291.049 47.1619 288.527 46.7894 285.798 46.9549C285.136 46.9549 284.805 46.9135 284.805 46.8308C284.805 46.6652 285.26 46.3755 286.17 45.9617C287.08 45.5479 287.659 45.2581 287.907 45.0926C288.651 44.596 289.437 44.0166 290.264 43.3544C291.091 42.6923 291.546 42.444 291.629 42.6095ZM293.117 28.456C293.117 25.8074 291.711 23.9037 288.899 22.7449C286.087 21.5034 282.2 20.6757 277.238 20.2618C277.816 22.8277 278.189 25.1866 278.354 27.3386C278.52 29.4905 278.478 31.6426 278.23 33.7946C278.064 35.8638 277.692 38.0572 277.114 40.3747C276.618 42.6095 276.038 45.0926 275.377 47.824C277.114 46.9963 279.016 45.7547 281.084 44.0993C283.151 42.3612 285.054 40.5817 286.79 38.7607C288.609 36.8571 290.098 34.9948 291.256 33.1738C292.497 31.2702 293.117 29.6975 293.117 28.456ZM275.997 9.46052C278.809 9.295 281.993 9.62605 285.55 10.4538C289.189 11.1987 292.455 12.4402 295.35 14.1783C296.839 15.0888 298.08 16.2061 299.072 17.5305C300.065 18.8548 300.809 20.2618 301.305 21.7517C301.884 23.1587 302.215 24.6072 302.298 26.097C302.38 27.5869 302.215 28.9526 301.801 30.1941C301.718 30.3596 301.635 30.6079 301.553 30.939C301.47 31.1873 301.346 31.477 301.181 31.8081C301.015 32.0564 300.85 32.3047 300.685 32.553C300.519 32.7186 300.354 32.76 300.189 32.6772C299.941 32.6772 299.816 32.3875 299.816 31.8081C299.899 31.2287 300.023 30.6079 300.189 29.9458C300.602 27.6282 300.395 25.6004 299.568 23.8623C298.824 22.1241 297.666 20.6757 296.095 19.5169C294.523 18.2754 292.703 17.2822 290.636 16.5373C288.568 15.7923 286.418 15.2129 284.185 14.7991C282.034 14.3853 279.925 14.1783 277.858 14.1783C275.79 14.0955 274.012 14.137 272.524 14.3025C270.456 14.5508 268.388 14.9646 266.321 15.544C264.336 16.0406 262.475 16.62 260.738 17.2821C259.001 17.9443 257.513 18.6478 256.272 19.3928C255.031 20.1377 254.163 20.8413 253.667 21.5034C253.171 22.1655 252.881 22.3725 252.798 22.1241C252.798 21.8758 252.881 21.5034 253.046 21.0067C253.625 19.3514 254.7 17.8616 256.272 16.5373C257.843 15.1302 259.663 13.9301 261.731 12.9368C263.798 11.9436 266.073 11.1573 268.554 10.5779C271.035 9.99851 273.516 9.62603 275.997 9.46052ZM269.918 93.1403C267.189 94.2165 264.997 95.1679 263.343 95.9958C261.772 96.8238 260.2 97.8993 258.629 99.2238C258.463 99.3069 258.298 99.4721 258.133 99.7205C257.967 99.9688 257.802 100.052 257.637 99.9687C257.471 99.8857 257.471 99.6374 257.637 99.2238C257.802 98.8925 257.967 98.6442 258.133 98.4789C258.959 97.3204 260.035 96.203 261.358 95.1267C262.681 93.9682 264.542 92.892 266.941 91.8988C267.768 91.5674 268.678 91.2368 269.67 90.9055C270.745 90.4919 271.737 90.1606 272.648 89.9123C273.64 89.664 274.426 89.4987 275.005 89.4157C275.666 89.3327 276.079 89.4157 276.245 89.664C276.328 89.8293 276.079 90.0776 275.501 90.4089C274.922 90.7402 274.26 91.1127 273.516 91.5263C272.772 91.8576 272.027 92.1882 271.283 92.5195C270.621 92.8508 270.167 93.0573 269.918 93.1403ZM353.392 32.0564C352.234 36.526 350.787 41.161 349.05 45.9617C347.395 50.7623 345.659 55.3146 343.839 59.6186C343.757 59.7841 343.55 60.1981 343.219 60.8602C342.888 61.4396 342.64 61.6879 342.475 61.6051C342.227 61.6051 342.103 61.274 342.103 60.6119C342.185 59.867 342.268 59.3704 342.351 59.122C342.433 58.1288 342.599 56.8872 342.847 55.3974C343.095 53.9075 343.343 52.3763 343.591 50.8037C343.922 49.231 344.253 47.6998 344.584 46.21C344.997 44.7201 345.369 43.4372 345.7 42.3612C345.865 42.0301 346.114 41.2025 346.445 39.8781C346.775 38.5538 347.106 36.9812 347.437 35.1603C347.85 33.2566 348.264 31.1874 348.678 28.9526C349.091 26.7178 349.463 24.5244 349.794 22.3724L348.306 22C347.892 24.8969 347.271 27.8765 346.445 30.939C345.7 33.9187 344.832 36.9398 343.839 40.0023C342.929 42.982 342.02 46.0445 341.11 49.1897C340.2 52.2522 339.373 55.3146 338.629 58.377C337.967 61.274 337.471 64.2952 337.14 67.4404C336.809 70.5856 336.685 73.7722 336.768 77.0002C336.85 80.1452 337.223 83.2491 337.885 86.3118C338.546 89.2915 339.539 92.0641 340.862 94.6302C341.11 95.2098 341.192 95.4992 341.11 95.4992C340.944 95.4992 340.82 95.4581 340.738 95.375L340.49 95.1267C338.174 92.3954 336.437 89.4568 335.279 86.3118C334.204 83.0838 333.501 79.7728 333.17 76.3795C332.922 72.9859 333.005 69.551 333.419 66.0747C333.832 62.5984 334.411 59.2048 335.155 55.894C336.561 49.7691 338.215 43.8924 340.118 38.2641C342.02 32.553 343.632 26.9662 344.956 21.5034C339.994 20.6757 335.321 19.9307 330.937 19.2686C326.637 18.5237 322.626 18.5237 318.904 19.2686C318.656 19.2686 318.532 19.2272 318.532 19.1444C318.532 18.9789 318.573 18.8962 318.656 18.8962C318.821 18.8134 318.945 18.7306 319.028 18.6478C321.839 16.9925 324.817 16.082 327.96 15.9165C331.186 15.7509 334.493 15.9165 337.885 16.4131C341.358 16.8269 344.873 17.4063 348.43 18.1512C352.068 18.8133 355.707 19.1858 359.347 19.2686C361.58 19.3514 363.895 19.1858 366.294 18.772C368.775 18.2754 371.132 17.5718 373.365 16.6614C375.681 15.6682 377.748 14.3853 379.568 12.8127C381.47 11.24 383 9.37772 384.158 7.22574C384.324 6.81189 384.489 6.60498 384.655 6.60498V6.97745V7.22574C383.744 10.371 382.339 12.9781 380.437 15.0474C378.534 17.0338 376.343 18.6478 373.862 19.8894C371.463 21.1309 368.857 22 366.046 22.4966C363.317 22.9104 360.628 23.076 357.982 22.9932C358.395 25.5591 358.395 28.5387 357.982 31.9323C357.651 35.3258 357.114 38.7607 356.369 42.237C355.625 45.7133 354.839 49.0241 354.012 52.1693C353.185 55.2318 352.524 57.715 352.027 59.6186C351.035 63.5916 349.877 67.6473 348.554 71.7858C347.23 75.924 346.031 79.5663 344.956 82.7113C344.79 83.1249 344.584 83.4974 344.336 83.8287C344.17 84.16 344.005 84.2842 343.839 84.2012C343.674 84.1182 343.591 83.9117 343.591 83.5804C343.674 83.1668 343.715 82.7524 343.715 82.3388C343.964 76.1311 344.873 69.9234 346.445 63.7157C348.016 57.508 349.711 51.2589 351.531 44.9684C352.524 41.4921 353.474 37.9745 354.384 34.4153C355.377 30.8562 356.079 27.049 356.493 22.9932C356.079 22.9104 355.707 22.8691 355.377 22.8691C355.129 22.8691 354.798 22.8691 354.384 22.8691C354.384 24.5244 354.301 26.1384 354.136 27.7111C354.053 29.2837 353.805 30.7321 353.392 32.0564ZM356.742 5.61176C359.967 6.0256 363.234 6.35668 366.542 6.60498C369.85 6.85329 372.703 6.97745 375.102 6.97745C375.929 6.97745 376.343 7.10161 376.343 7.34992C376.343 7.68102 375.929 7.97069 375.102 8.219C370.884 9.87436 366.418 10.6193 361.704 10.4538C357.072 10.2883 352.358 9.833 347.561 9.08808C344.666 8.67426 341.689 8.26035 338.629 7.84653C335.569 7.43271 332.26 7.43271 328.704 7.84653C328.373 7.92933 328.208 7.88787 328.208 7.72236C328.208 7.55684 328.29 7.43271 328.456 7.34992C328.621 7.26712 328.787 7.14297 328.953 6.97745C330.523 5.81868 332.55 5.07376 335.031 4.74268C337.513 4.32884 340.076 4.16327 342.723 4.24604C345.452 4.24604 348.057 4.4116 350.539 4.74268C353.02 5.07376 355.087 5.36344 356.742 5.61176ZM338.133 9.46052C341.606 9.95713 345.121 10.5779 348.678 11.3229C352.317 12.0678 355.831 12.8954 359.223 13.8059C359.388 13.9714 359.719 14.137 360.215 14.3025C360.794 14.3853 361.084 14.5508 361.084 14.7991C361.084 14.9646 360.835 15.0887 360.339 15.1715C359.843 15.2543 359.471 15.3785 359.223 15.544C358.478 15.7095 357.527 15.7923 356.369 15.7923C355.294 15.7923 354.136 15.7923 352.896 15.7923C351.737 15.7095 350.58 15.6268 349.422 15.544C348.264 15.4612 347.271 15.337 346.445 15.1715C345.866 15.0887 344.418 14.9233 342.103 14.6749C339.87 14.4266 337.389 14.2611 334.659 14.1783C331.93 14.0955 329.283 14.137 326.719 14.3025C324.238 14.3853 322.46 14.7163 321.385 15.2957C321.054 15.4612 320.847 15.544 320.765 15.544H320.641C320.641 15.2129 320.806 14.8819 321.137 14.5508C321.963 13.4748 323.08 12.5644 324.486 11.8195C325.975 11.0745 327.505 10.4951 329.077 10.0813C330.648 9.66748 332.219 9.41916 333.791 9.33637C335.445 9.25358 336.892 9.295 338.133 9.46052ZM342.227 86.3118C342.475 87.7186 342.764 89.1262 343.095 90.5331C343.508 91.9399 344.005 93.3056 344.584 94.6302C344.914 95.2921 344.956 95.6234 344.708 95.6234C344.542 95.6234 344.294 95.5403 343.964 95.375C343.798 95.292 343.674 95.1679 343.591 95.0026C342.516 93.7611 341.648 92.6025 340.986 91.5263C340.407 90.45 339.911 88.7119 339.497 86.3118C339.332 85.4016 339.208 84.2423 339.125 82.8355C339.125 81.4287 339.166 80.063 339.249 78.7384C339.332 77.4139 339.456 76.2964 339.622 75.3862C339.787 74.476 340.035 74.0205 340.366 74.0205C340.448 74.0205 340.531 74.2277 340.614 74.6413C340.779 75.0549 340.903 75.5515 340.986 76.1311C341.068 76.6278 341.151 77.1655 341.234 77.7452C341.316 78.2418 341.358 78.5731 341.358 78.7384C341.524 80.1452 341.648 81.4698 341.731 82.7113C341.896 83.9529 342.061 85.1533 342.227 86.3118ZM378.204 8.59144C380.023 7.01879 381.553 5.32206 382.794 3.50113C382.959 3.17006 383.124 3.00452 383.29 3.00452C383.372 3.00452 383.414 3.29421 383.414 3.8736C383.414 4.20468 383.372 4.49438 383.29 4.74268C382.959 6.14976 382.587 7.2671 382.173 8.09482C381.759 8.92254 380.767 9.91578 379.196 11.0745C378.617 11.5711 377.831 12.0677 376.839 12.5644C375.846 12.9782 374.895 13.3506 373.986 13.6817C373.075 14.0128 372.249 14.2197 371.504 14.3025C370.842 14.3025 370.47 14.137 370.388 13.8059C370.388 13.7231 370.512 13.5989 370.76 13.4334C371.008 13.1851 371.297 12.9368 371.628 12.6885C372.042 12.4402 372.414 12.2333 372.745 12.0678C373.075 11.8194 373.323 11.6539 373.489 11.5711C374.316 11.1573 375.102 10.7021 375.846 10.2054C376.673 9.70883 377.459 9.17085 378.204 8.59144Z"/></svg>