<svg width="82" height="82" viewBox="0 0 82 82" fill="none" xmlns="http://www.w3.org/2000/svg">
<path fill-rule="evenodd" clip-rule="evenodd" d="M55.5049 62.6253C55.9756 62.0255 56.3393 61.3489 56.58 60.6254C56.8192 59.9239 57.0105 59.0242 56.9217 58.1039C56.8305 57.1564 56.3978 55.9264 55.1473 55.1952C53.9902 54.5187 52.6508 54.5848 51.4664 54.8809L51.4345 54.89C45.9769 56.3387 43.3051 56.9377 40.7198 56.9263C38.1277 56.9149 35.5151 56.2885 30.1532 54.8923C29.1191 54.6007 27.8868 54.5301 26.7912 55.1884C25.6592 55.8717 25.2378 56.9833 25.1102 57.8192C24.9849 58.6483 25.092 59.4752 25.2628 60.1425C25.4359 60.8168 25.7207 61.5138 26.1079 62.09C26.3612 62.4469 26.6447 62.7815 26.9552 63.09C29.9687 66.3882 35.2964 68.3334 41.0319 68.3334C47.0042 68.3334 52.5734 66.2151 55.5049 62.6253ZM40.6993 61.4819C43.9019 61.4955 47.0703 60.7553 52.1679 59.4091L52.0996 59.5458C52.0646 59.6154 52.0234 59.6817 51.9766 59.7439C50.1863 61.9374 46.1455 63.7779 41.0296 63.7779C36.1506 63.7779 32.2192 62.0969 30.3172 60.0173C30.2541 59.9483 30.1903 59.88 30.1259 59.8123L30.1213 59.8077C30.0427 59.723 29.9653 59.6372 29.889 59.5503L29.8844 59.5412L29.8753 59.5275C34.5812 60.7484 37.6084 61.4682 40.6993 61.4819Z" fill="#1BC88C"/>
<path d="M17.6368 41.7974C17.3635 43.4784 18.5047 45.0887 20.0604 46.0864C21.6867 47.1274 24.0032 47.6968 26.7343 47.2936C27.9535 47.1281 29.1232 46.7041 30.1654 46.0501C31.2075 45.396 32.098 44.527 32.7772 43.5011C33.9275 41.7609 34.399 39.6449 33.8706 38.0755C33.8095 37.8942 33.7037 37.7312 33.563 37.6016C33.4223 37.472 33.2513 37.3799 33.0656 37.3338C32.88 37.2877 32.6857 37.2892 32.5007 37.338C32.3158 37.3868 32.1461 37.4814 32.0073 37.6131C27.9187 41.4944 23.2994 42.4488 19.1561 40.9113C18.9982 40.853 18.8294 40.8304 18.6618 40.8451C18.4941 40.8598 18.3318 40.9115 18.1866 40.9964C18.0413 41.0814 17.9166 41.1975 17.8216 41.3364C17.7265 41.4752 17.6634 41.6335 17.6368 41.7996V41.7974ZM63.3655 41.7974C63.6366 43.4784 62.4954 45.0887 60.9397 46.0864C59.3133 47.1274 56.9968 47.6968 54.2658 47.2936C53.0466 47.1279 51.8769 46.7039 50.8348 46.0499C49.7927 45.3959 48.9022 44.5269 48.2228 43.5011C47.0726 41.7609 46.6011 39.6449 47.1295 38.0755C47.1906 37.8942 47.2964 37.7312 47.437 37.6016C47.5777 37.472 47.7488 37.3799 47.9344 37.3338C48.1201 37.2877 48.3144 37.2892 48.4993 37.338C48.6843 37.3868 48.854 37.4814 48.9927 37.6131C53.0836 41.4944 57.7029 42.4488 61.8439 40.9113C62.0018 40.853 62.1706 40.8304 62.3383 40.8451C62.5059 40.8598 62.6682 40.9115 62.8135 40.9964C62.9588 41.0814 63.0834 41.1975 63.1785 41.3364C63.2735 41.4752 63.3366 41.6335 63.3632 41.7996L63.3655 41.7974Z" fill="#1BC88C"/>
<path fill-rule="evenodd" clip-rule="evenodd" d="M82 41C82 63.6434 63.6434 82 41 82C18.3566 82 0 63.6434 0 41C0 18.3566 18.3566 0 41 0C63.6434 0 82 18.3566 82 41ZM77.4444 41C77.4444 61.1287 61.1287 77.4444 41 77.4444C20.8713 77.4444 4.55556 61.1287 4.55556 41C4.55556 20.8713 20.8713 4.55556 41 4.55556C61.1287 4.55556 77.4444 20.8713 77.4444 41Z" fill="#1BC88C"/>
</svg>
