<svg width="96" height="96" viewBox="0 0 96 96" fill="none" xmlns="http://www.w3.org/2000/svg">
<path d="M24 72L14.8 81.2C13.5333 82.4667 12.0827 82.7493 10.448 82.048C8.816 81.3493 8 80.1 8 78.3V16C8 13.8 8.784 11.916 10.352 10.348C11.9173 8.78267 13.8 8 16 8H56.4C56.1333 9.33333 56 10.6667 56 12C56 13.3333 56.1333 14.6667 56.4 16H16V64H80V31.6C81.5333 31.2667 82.9667 30.816 84.3 30.248C85.6333 29.6827 86.8667 28.9333 88 28V64C88 66.2 87.2173 68.084 85.652 69.652C84.084 71.2173 82.2 72 80 72H24ZM16 16V64V16ZM76 24C72.6667 24 69.8333 22.8333 67.5 20.5C65.1667 18.1667 64 15.3333 64 12C64 8.66667 65.1667 5.83333 67.5 3.5C69.8333 1.16667 72.6667 0 76 0C79.3333 0 82.1667 1.16667 84.5 3.5C86.8333 5.83333 88 8.66667 88 12C88 15.3333 86.8333 18.1667 84.5 20.5C82.1667 22.8333 79.3333 24 76 24Z" fill="#1BC88C"/>
</svg>
