<svg xmlns="http://www.w3.org/2000/svg" width="87" height="68" fill="none" viewBox="0 0 87 68"><path fill="#1BC88C" fill-rule="evenodd" d="M43.565 0C44.6111 0.00773722 61.3654 0.141182 72.5602 0.97813L72.7121 0.994322C72.8417 1.01202 72.9863 1.02915 73.1442 1.04761C75.0526 1.27072 79.0205 1.73596 82.5204 5.56615C85.5485 8.82266 86.2819 15.2248 86.3555 15.9446L86.3597 15.9856C86.3855 16.2857 87 23.4152 87 30.5734V37.2649C87 38.879 86.9687 40.4911 86.92 42.0243C86.7528 47.2905 86.3796 51.6204 86.3597 51.8531L86.3497 51.9444C86.2648 52.6476 85.4303 58.913 82.5464 62.1351C79.0849 66.05 75.1807 66.475 73.3048 66.6796C73.1258 66.6986 72.9624 66.7165 72.8172 66.7361L72.6649 66.7527C64.1512 67.3889 52.4238 67.6186 46.8343 67.6952C45.0909 67.7191 43.9433 67.7282 43.678 67.7304L43.5674 67.731C43.4025 67.728 42.5424 67.7148 41.2099 67.6909C35.4045 67.5864 20.6235 67.2761 15.2223 66.748L15.0212 66.7194C14.8136 66.6817 14.5089 66.6463 14.1551 66.6045C11.9169 66.3413 7.75585 65.8514 4.46508 62.1494C1.45089 58.8916 0.718103 52.6068 0.644485 51.8987L0.639778 51.8535C0.613983 51.5535 0 44.4233 0 37.2649L0.000788577 30.1261C0.0253273 23.121 0.614521 16.2787 0.639778 15.9856L0.649757 15.8941C0.735236 15.1899 1.56913 8.92489 4.45284 5.70322C7.96296 1.73464 11.8882 1.26846 13.7748 1.04478C13.9228 1.02708 14.0589 1.01146 14.1822 0.994322L14.3357 0.97813C25.6313 0.141182 42.3881 0.00773722 43.4342 0H43.565ZM43.5 46.5298C33.9126 46.5298 25.8991 53.3944 23.9286 62.5646C32.4182 62.8814 42.9973 63.0477 43.6182 63.0569L43.7344 63.0562C44.1615 63.0531 45.5132 63.0413 47.4703 63.0129C50.9619 62.9618 56.384 62.8572 61.9421 62.6502C62.3213 62.6361 62.7009 62.6214 63.0806 62.6064C61.1253 53.4151 53.1019 46.5298 43.5 46.5298ZM43.4996 4.67295C42.8836 4.67785 25.7161 4.80381 14.206 5.65126C14.0755 5.66858 13.9339 5.68515 13.7823 5.70341C12.1942 5.89188 9.79323 6.17731 7.51617 8.75168C6.14266 10.2864 5.22874 14.084 4.96553 16.1568C4.91017 16.8086 4.33742 23.7593 4.33742 30.5081L4.33825 37.7793C4.36277 44.4865 4.92727 51.2345 4.96779 51.707C5.18883 53.7483 6.06 57.5284 7.46815 59.0362L7.51617 59.0891C9.56184 61.4017 12.2221 61.7149 14.1655 61.9438C14.5485 61.9884 14.912 62.0314 15.2485 62.0878C16.3799 62.1957 17.9375 62.2949 19.7456 62.3851C21.8537 50.9778 31.704 42.3148 43.5 42.3148C55.308 42.3148 65.1658 50.9906 67.2603 62.4185C69.1856 62.3207 71.0564 62.2085 72.7933 62.0796C72.9614 62.0579 73.1467 62.037 73.347 62.0154C75.0041 61.8352 77.2738 61.5876 79.4831 59.0891C80.9163 57.488 81.8131 53.4456 82.0337 51.6861C82.0778 51.1664 82.4658 46.4643 82.6091 41.091C82.6421 39.8592 82.6618 38.5923 82.6618 37.3323L82.661 30.0601C82.6364 23.3386 82.07 16.5767 82.0317 16.131C81.8104 14.0484 80.9392 10.2022 79.5313 8.69444L79.5104 8.67147C77.2448 6.18748 74.7761 5.89809 73.1425 5.70699C72.9782 5.68741 72.8253 5.66933 72.6852 5.65126C61.2773 4.80381 44.1157 4.67709 43.4996 4.67295ZM44.2336 9.9797C52.5839 9.9797 59.3534 16.8801 59.3534 25.3924C59.3534 33.9044 52.5839 40.8049 44.2336 40.8049C35.8871 40.7948 29.1236 33.9002 29.1137 25.3924C29.1137 16.8801 35.8832 9.9797 44.2336 9.9797ZM44.2336 14.0649C38.1006 14.0726 33.1317 19.1406 33.1273 25.3924C33.1273 31.6449 38.0997 36.7134 44.2336 36.7134C50.3673 36.7134 55.3397 31.6449 55.3397 25.3924C55.3397 19.1399 50.3673 14.071 44.2336 14.071V14.0649Z" clip-rule="evenodd"/></svg>